<svg width="13" height="13" viewBox="0 0 13 13" fill="none" xmlns="http://www.w3.org/2000/svg">
<path d="M5.66666 11C6.84998 10.9998 7.9992 10.6036 8.93133 9.87467L11.862 12.8053L12.8047 11.8627L9.874 8.932C10.6033 7.99978 10.9997 6.85029 11 5.66667C11 2.726 8.60733 0.333336 5.66666 0.333336C2.726 0.333336 0.333328 2.726 0.333328 5.66667C0.333328 8.60734 2.726 11 5.66666 11ZM5.66666 1.66667C7.87266 1.66667 9.66666 3.46067 9.66666 5.66667C9.66666 7.87267 7.87266 9.66667 5.66666 9.66667C3.46066 9.66667 1.66666 7.87267 1.66666 5.66667C1.66666 3.46067 3.46066 1.66667 5.66666 1.66667Z" fill="black"/>
</svg>
