<svg width="10" height="8" viewBox="0 0 10 8" fill="none" xmlns="http://www.w3.org/2000/svg">
<path d="M9.86203 0.521713C9.79266 0.439918 9.69329 0.393166 9.58915 0.393166H7.65761V1.41881C7.65761 1.89009 7.25347 2.27351 6.75671 2.27351C6.25996 2.27351 5.85581 1.89009 5.85581 1.41881V0.393166H4.05401V1.41881C4.05401 1.89009 3.64987 2.27351 3.15311 2.27351C2.65635 2.27351 2.25221 1.89009 2.25221 1.41881V0.393166H0.320768C0.216534 0.393166 0.117164 0.439918 0.0477949 0.521713C-0.0216646 0.603507 -0.0545475 0.712567 -0.0426556 0.821456L0.605543 6.78462C0.617615 7.45692 1.14167 8 1.78419 8H8.12572C8.76815 8 9.29221 7.45693 9.30437 6.78453L9.95257 0.821371C9.96437 0.712567 9.93149 0.603507 9.86203 0.521713Z" fill="#231F20"/>
</svg>
