<svg width="10" height="8" viewBox="0 0 10 8" fill="none" xmlns="http://www.w3.org/2000/svg">
<path d="M9.86203 0.521613C9.79266 0.439819 9.69329 0.393066 9.58915 0.393066H7.65761V1.41871C7.65761 1.88999 7.25347 2.27341 6.75671 2.27341C6.25996 2.27341 5.85581 1.88999 5.85581 1.41871V0.393066H4.05401V1.41871C4.05401 1.88999 3.64987 2.27341 3.15311 2.27341C2.65635 2.27341 2.25221 1.88999 2.25221 1.41871V0.393066H0.320768C0.216534 0.393066 0.117164 0.439819 0.0477949 0.521613C-0.0216646 0.603408 -0.0545475 0.712468 -0.0426556 0.821357L0.605543 6.78452C0.617615 7.45683 1.14167 7.9999 1.78419 7.9999H8.12572C8.76815 7.9999 9.29221 7.45683 9.30437 6.78443L9.95257 0.821271C9.96437 0.712468 9.93149 0.603408 9.86203 0.521613Z" fill="#FFC600"/>
</svg>
